<svg width="500" height="300" viewBox="0 0 798 547" fill="none" xmlns="http://www.w3.org/2000/svg">
        <g id="undraw_into_the_night_vumi 1" clip-path="url(#clip0)">
        <path id="sky" d="M705.445 361.328C701.58 397.227 693.549 426.049 682.525 449.036C667.856 479.663 642.764 492.003 620.35 504.915C613.873 508.64 607.139 511.814 600.209 514.409C559.421 529.754 513.771 525.683 477.912 517.581C452.762 511.894 427.232 508.395 401.567 507.118C394.247 506.76 386.92 506.582 379.585 506.585C368.276 506.601 164.632 510.791 115.05 401.973C102.809 375.131 94.4178 342.341 91.4033 302.371C82.8732 189.371 129.756 115.156 190.229 66.6473C304.626 -25.1154 461.432 -21.2671 574.142 72.9127C649.218 135.646 719.513 230.589 705.445 361.328Z" fill="#3F3D56"/>
        <path id="mountains" d="M682.525 449.036C667.856 479.663 647.898 499.954 625.484 512.866C619.007 516.591 612.273 519.765 605.343 522.36C564.556 537.705 518.905 533.634 483.047 525.532C457.896 519.845 432.366 516.346 406.701 515.069C399.381 514.711 392.054 514.533 384.72 514.536C373.41 514.552 362.102 515.008 350.797 515.904C277.327 521.756 164.631 510.791 115.05 401.974L239.107 141.498L285.278 270.002L300.013 311.022L340.624 250.61L361.594 219.418L457.09 338.103L484.081 273.485L670.951 438.803L681.373 448.018L682.525 449.036Z" fill="#DEDBDB"/>
        <path id="Vector" opacity="0.1" d="M221.504 224.984L240.574 179.663L266.978 245.656L244.241 197.95L221.504 224.984Z" fill="black"/>
        <path id="Vector_2" opacity="0.1" d="M406.701 515.069C399.381 514.711 392.054 514.533 384.72 514.536L300.013 311.022L406.701 515.069Z" fill="black"/>
        <path id="Vector_3" opacity="0.1" d="M340.625 250.609L361.594 232.935L456.943 352.2L360.127 250.427L340.625 250.609Z" fill="black"/>
        <path id="Vector_4" opacity="0.1" d="M625.484 512.866C619.007 516.591 612.273 519.765 605.343 522.36L457.09 338.103L625.484 512.866Z" fill="black"/>
        <path id="Vector_5" d="M353.526 83.4557C354.741 83.4557 355.726 82.3878 355.726 81.0704C355.726 79.7531 354.741 78.6851 353.526 78.6851C352.31 78.6851 351.325 79.7531 351.325 81.0704C351.325 82.3878 352.31 83.4557 353.526 83.4557Z" fill="#F2F2F2"/>
        <path id="Vector_6" d="M292.649 165.351C293.864 165.351 294.849 164.283 294.849 162.966C294.849 161.649 293.864 160.581 292.649 160.581C291.434 160.581 290.448 161.649 290.448 162.966C290.448 164.283 291.434 165.351 292.649 165.351Z" fill="#F2F2F2"/>
        <path id="Vector_7" d="M441.54 178.868C442.351 178.868 443.007 178.156 443.007 177.278C443.007 176.4 442.351 175.688 441.54 175.688C440.73 175.688 440.074 176.4 440.074 177.278C440.074 178.156 440.73 178.868 441.54 178.868Z" fill="#F2F2F2"/>
        <path id="Vector_8" d="M133.489 214.648C134.299 214.648 134.956 213.936 134.956 213.057C134.956 212.179 134.299 211.467 133.489 211.467C132.679 211.467 132.022 212.179 132.022 213.057C132.022 213.936 132.679 214.648 133.489 214.648Z" fill="#F2F2F2"/>
        <path id="Vector_9" d="M450.342 80.2753C451.152 80.2753 451.809 79.5634 451.809 78.6851C451.809 77.8069 451.152 77.0949 450.342 77.0949C449.532 77.0949 448.875 77.8069 448.875 78.6851C448.875 79.5634 449.532 80.2753 450.342 80.2753Z" fill="#F2F2F2"/>
        <path id="Vector_10" d="M541.29 156.605C542.101 156.605 542.757 155.893 542.757 155.015C542.757 154.137 542.101 153.425 541.29 153.425C540.48 153.425 539.824 154.137 539.824 155.015C539.824 155.893 540.48 156.605 541.29 156.605Z" fill="#F2F2F2"/>
        <path id="Vector_11" d="M630.772 277.461C631.582 277.461 632.239 276.749 632.239 275.87C632.239 274.992 631.582 274.28 630.772 274.28C629.962 274.28 629.305 274.992 629.305 275.87C629.305 276.749 629.962 277.461 630.772 277.461Z" fill="#F2F2F2"/>
        <path id="Vector_12" d="M224.438 96.3838H222.413V94.1893H221.328V96.3838H219.303V97.5614H221.328V99.755H222.413V97.5614H224.438V96.3838Z" fill="#F2F2F2"/>
        <path id="Vector_13" d="M621.971 337.3H619.946V335.105H618.861V337.3H616.836V338.477H618.861V340.671H619.946V338.477H621.971V337.3Z" fill="#F2F2F2"/>
        <path id="Vector_14" d="M798 488.163C798 501.336 619.362 547 399 547C178.638 547 0 501.336 0 488.163C0 474.989 178.638 499.294 399 499.294C619.362 499.294 798 474.989 798 488.163Z" fill="#3F3D56"/>
        <path id="Vector_15" opacity="0.1" d="M798 488.163C798 501.336 619.362 547 399 547C178.638 547 0 501.336 0 488.163C0 474.989 178.638 499.294 399 499.294C619.362 499.294 798 474.989 798 488.163Z" fill="black"/>
        <path id="Vector_16" d="M399 512.016C619.362 512.016 798 501.336 798 488.162C798 474.989 619.362 464.309 399 464.309C178.638 464.309 0 474.989 0 488.162C0 501.336 178.638 512.016 399 512.016Z" fill="#3F3D56"/>
        <path id="Vector_17" d="M416.603 454.768C416.603 481.116 405.766 473.851 392.399 473.851C379.031 473.851 368.195 481.116 368.195 454.768C368.195 428.421 392.399 378.438 392.399 378.438C392.399 378.438 416.603 428.421 416.603 454.768Z" fill="#FF6584"/>
        <path id="Vector_18" opacity="0.1" d="M403.401 464.849C403.401 476.825 398.475 473.523 392.399 473.523C386.323 473.523 381.397 476.825 381.397 464.849C381.397 452.873 392.399 430.154 392.399 430.154C392.399 430.154 403.401 452.873 403.401 464.849Z" fill="black"/>
        <path id="Vector_19" d="M419.537 481.007H365.261C361.615 481.007 358.66 484.21 358.66 488.162C358.66 492.115 361.615 495.318 365.261 495.318H419.537C423.182 495.318 426.138 492.115 426.138 488.162C426.138 484.21 423.182 481.007 419.537 481.007Z" fill="#2F2E41"/>
        <path id="Vector_20" d="M419.537 466.695H365.261C361.615 466.695 358.66 469.899 358.66 473.851C358.66 477.803 361.615 481.007 365.261 481.007H419.537C423.182 481.007 426.138 477.803 426.138 473.851C426.138 469.899 423.182 466.695 419.537 466.695Z" fill="#2F2E41"/>
        <path id="Vector_21" d="M100.483 390.02C100.483 434.023 125.949 469.63 157.419 469.63Z" fill="#3F3D56"/>
        <path id="Vector_22" d="M157.419 469.63C157.419 425.132 185.836 389.125 220.955 389.125Z" fill="#26263B"/>
        <path id="Vector_23" d="M121.112 394.009C121.112 435.807 137.351 469.63 157.419 469.63Z" fill="#26263B"/>
        <path id="Vector_24" d="M157.419 469.63C157.419 412.772 190.265 366.763 230.857 366.763Z" fill="#3F3D56"/>
        <path id="Vector_25" d="M145.441 470.191C145.441 470.191 153.515 469.922 155.949 468.043C158.382 466.165 168.369 463.922 168.973 466.935C169.576 469.947 181.107 481.918 171.991 481.998C162.875 482.077 150.81 480.458 148.381 478.855C145.952 477.251 145.441 470.191 145.441 470.191Z" fill="#A8A8A8"/>
        <path id="Vector_26" opacity="0.2" d="M172.154 480.949C163.038 481.029 150.973 479.41 148.544 477.806C146.694 476.585 145.957 472.202 145.711 470.18C145.54 470.188 145.441 470.192 145.441 470.192C145.441 470.192 145.952 477.251 148.381 478.855C150.81 480.458 162.875 482.077 171.991 481.998C174.623 481.975 175.531 480.96 175.482 479.457C175.116 480.365 174.112 480.932 172.154 480.949Z" fill="black"/>
        <path id="Vector_27" d="M529.136 419.068C529.136 449.305 546.635 473.772 568.259 473.772Z" fill="#3F3D56"/>
        <path id="Vector_28" d="M568.259 473.772C568.259 443.195 587.786 418.453 611.918 418.453Z" fill="#26263B"/>
        <path id="Vector_29" d="M543.311 421.809C543.311 450.531 554.47 473.772 568.259 473.772Z" fill="#26263B"/>
        <path id="Vector_30" d="M568.259 473.772C568.259 434.702 590.83 403.087 618.722 403.087Z" fill="#3F3D56"/>
        <path id="Vector_31" d="M560.029 474.158C560.029 474.158 565.577 473.972 567.249 472.682C568.921 471.391 575.784 469.85 576.199 471.92C576.613 473.99 584.537 482.216 578.273 482.27C572.009 482.325 563.718 481.213 562.049 480.111C560.38 479.009 560.029 474.158 560.029 474.158Z" fill="#A8A8A8"/>
        <path id="Vector_32" opacity="0.2" d="M578.384 481.55C572.12 481.604 563.83 480.492 562.161 479.39C560.89 478.551 560.383 475.539 560.214 474.15C560.097 474.155 560.029 474.158 560.029 474.158C560.029 474.158 560.38 479.008 562.049 480.111C563.718 481.213 572.009 482.325 578.273 482.27C580.081 482.254 580.705 481.557 580.671 480.524C580.42 481.148 579.73 481.538 578.384 481.55Z" fill="black"/>
        <path id="Vector_33" d="M655.572 491.929C655.572 491.929 663.904 490.554 666.208 488.279C668.511 486.003 678.596 482.325 679.569 485.363C680.542 488.401 693.867 499.235 684.434 500.555C675.002 501.874 662.318 501.834 659.618 500.503C656.917 499.171 655.572 491.929 655.572 491.929Z" fill="#A8A8A8"/>
        <path id="Vector_34" opacity="0.2" d="M684.482 499.446C675.049 500.766 662.366 500.726 659.665 499.395C657.608 498.38 656.339 493.941 655.85 491.881C655.674 491.912 655.572 491.929 655.572 491.929C655.572 491.929 656.917 499.171 659.618 500.503C662.318 501.834 675.002 501.874 684.434 500.555C687.157 500.174 687.981 498.999 687.756 497.449C687.482 498.44 686.508 499.163 684.482 499.446Z" fill="black"/>
        <path id="Vector_35" d="M450.532 491.275C450.532 491.275 457.564 490.115 459.508 488.194C461.452 486.274 469.963 483.17 470.784 485.734C471.606 488.298 482.851 497.442 474.891 498.555C466.93 499.669 456.226 499.635 453.947 498.511C451.667 497.387 450.532 491.275 450.532 491.275Z" fill="#A8A8A8"/>
        <path id="Vector_36" opacity="0.2" d="M474.931 497.62C466.97 498.733 456.266 498.7 453.987 497.576C452.251 496.72 451.18 492.974 450.767 491.234C450.618 491.261 450.532 491.275 450.532 491.275C450.532 491.275 451.667 497.387 453.947 498.511C456.226 499.635 466.93 499.669 474.891 498.555C477.189 498.234 477.884 497.242 477.694 495.934C477.463 496.77 476.641 497.38 474.931 497.62Z" fill="black"/>
        <path id="Vector_37" d="M89.767 487.469C89.767 487.469 95.241 486.566 96.7545 485.071C98.2679 483.576 104.894 481.159 105.533 483.155C106.172 485.151 114.927 492.27 108.73 493.136C102.532 494.003 94.1992 493.977 92.4248 493.102C90.6505 492.227 89.767 487.469 89.767 487.469Z" fill="#A8A8A8"/>
        <path id="Vector_38" opacity="0.2" d="M108.761 492.408C102.564 493.275 94.2304 493.249 92.456 492.374C91.1047 491.708 90.2707 488.791 89.9495 487.437C89.8339 487.458 89.767 487.469 89.767 487.469C89.767 487.469 90.6505 492.227 92.4249 493.102C94.1992 493.977 102.532 494.003 108.73 493.136C110.519 492.886 111.06 492.115 110.912 491.096C110.732 491.747 110.092 492.222 108.761 492.408Z" fill="black"/>
        <path id="Vector_39" opacity="0.1" d="M281.424 478.109C281.424 502.138 250.528 494.705 212.7 494.705C174.871 494.705 144.434 502.138 144.434 478.109C144.434 454.081 175.326 448.855 213.154 448.855C250.983 448.855 281.424 454.081 281.424 478.109Z" fill="black"/>
        <path id="Vector_40" d="M281.424 472.193C281.424 496.221 250.528 488.789 212.7 488.789C174.871 488.789 144.434 496.221 144.434 472.193C144.434 448.165 175.326 442.939 213.154 442.939C250.983 442.939 281.424 448.165 281.424 472.193Z" fill="#3F3D56"/>
        <path id="Vector_41" d="M287.314 362.106C285.491 363.116 283.759 364.306 282.138 365.662C280.511 367.028 279.265 368.856 278.539 370.944C277.628 368.63 276.883 366.243 276.311 363.804C275.026 359.427 273.506 355.135 271.758 350.951C274.627 349.766 277.114 347.698 278.914 345.001C282.434 348.801 286.054 352.763 287.805 357.802C288.107 358.67 288.985 359.596 289.189 360.373C289.477 361.473 288.083 361.647 287.314 362.106Z" fill="#FFBFC5"/>
        <path id="Vector_42" d="M320.441 454.725C324.286 456.041 327.872 458.121 331.016 460.859C331.253 461.019 331.424 461.271 331.496 461.564C331.576 462.224 330.763 462.494 330.173 462.678C328.437 463.22 327.328 464.988 326.049 466.371C324.771 467.755 322.717 468.84 321.226 467.735C320.834 467.41 320.492 467.02 320.213 466.579L313.912 457.664C316.049 456.37 318.295 455.301 320.62 454.472" fill="#F1F1F1"/>
        <path id="Vector_43" d="M331.766 456.579C332.6 457.502 332.963 458.829 333.781 459.768C334.332 460.337 334.96 460.81 335.645 461.17L340.465 464.046C341.206 464.521 341.986 464.92 342.794 465.239C343.703 465.514 344.627 465.723 345.561 465.865C346.897 466.137 348.204 466.555 349.461 467.113C350.406 467.532 351.46 468.256 351.456 469.363C351.417 469.904 351.214 470.416 350.878 470.818C348.977 473.413 345.613 473.988 342.573 474.336C335.993 475.091 329.259 475.656 322.827 473.975C321.571 473.724 320.384 473.167 319.356 472.346C317.415 470.603 317.029 467.427 317.754 464.809C317.959 463.806 318.506 462.923 319.286 462.338C320.305 461.705 321.575 461.999 322.745 461.901C323.991 461.717 325.198 461.301 326.312 460.67C327.047 460.31 327.894 459.847 328.052 458.898C328.198 458.019 327.244 457.137 327.445 456.352C327.89 454.61 330.998 455.729 331.766 456.579Z" fill="#575A89"/>
        <path id="Vector_44" opacity="0.1" d="M331.766 456.579C332.6 457.502 332.963 458.829 333.781 459.768C334.332 460.337 334.96 460.81 335.645 461.17L340.465 464.046C341.206 464.521 341.986 464.92 342.794 465.239C343.703 465.514 344.627 465.723 345.561 465.865C346.897 466.137 348.204 466.555 349.461 467.113C350.406 467.532 351.46 468.256 351.456 469.363C351.417 469.904 351.214 470.416 350.878 470.818C348.977 473.413 345.613 473.988 342.573 474.336C335.993 475.091 329.259 475.656 322.827 473.975C321.571 473.724 320.384 473.167 319.356 472.346C317.415 470.603 317.029 467.427 317.754 464.809C317.959 463.806 318.506 462.923 319.286 462.338C320.305 461.705 321.575 461.999 322.745 461.901C323.991 461.717 325.198 461.301 326.312 460.67C327.047 460.31 327.894 459.847 328.052 458.898C328.198 458.019 327.244 457.137 327.445 456.352C327.89 454.61 330.998 455.729 331.766 456.579Z" fill="black"/>
        <path id="Vector_45" d="M342.95 485.122C343.625 485.604 344.3 486.087 344.975 486.571C345.596 486.929 346.107 487.476 346.446 488.144C346.885 489.262 346.291 490.528 345.631 491.511C343.649 494.447 340.945 496.72 337.827 498.067C336.745 498.554 335.603 498.863 334.437 498.983C334.17 499.028 333.897 498.991 333.649 498.875C333.032 498.522 333.121 497.565 333.113 496.809C333.092 494.613 331.562 492.831 330.187 491.218C328.813 489.605 327.411 487.62 327.726 485.451C328.011 484.173 328.615 483.006 329.471 482.076C330.233 481.04 331.126 480.126 332.124 479.362C333.554 478.348 334.059 478.894 335.405 479.824C337.932 481.569 340.447 483.335 342.95 485.122Z" fill="#F1F1F1"/>
        <path id="Vector_46" d="M336.369 495.818C336.92 495.969 337.496 495.977 338.05 495.841C338.604 495.706 339.121 495.43 339.559 495.038C340.428 494.244 341.134 493.26 341.63 492.152C342.122 491.165 342.551 490.142 342.912 489.091C343.336 487.86 343.729 486.499 344.726 485.752C345.935 484.847 347.639 485.202 348.867 486.075C350.026 487.055 351.09 488.16 352.043 489.373C354.596 491.954 357.692 493.821 361.061 494.812C364.416 495.794 367.817 496.582 371.249 497.173C371.935 497.272 372.599 497.504 373.21 497.857C374.59 498.77 375.05 500.806 374.666 502.508C374.179 504.187 373.305 505.704 372.127 506.915C371.2 508.108 370.05 509.073 368.753 509.747C367.656 510.182 366.502 510.419 365.334 510.449C359.682 510.866 354.004 510.384 348.48 509.018C346.451 508.421 344.386 507.974 342.301 507.681C341.03 507.56 339.75 507.598 338.477 507.505C335.946 507.316 333.471 506.609 331.183 505.419C330.626 505.197 330.157 504.775 329.853 504.222C329.689 503.714 329.655 503.166 329.755 502.638L330.599 494.623C330.673 493.926 330.887 493.059 331.527 492.95C332.136 492.846 332.578 493.522 332.962 494.046C333.705 495.011 334.723 495.68 335.855 495.949C336.988 496.217 338.171 496.069 339.218 495.529" fill="#575A89"/>
        <path id="Vector_47" d="M287.417 394.757C291.126 394.303 295.429 394.228 297.937 397.225C299.475 399.063 299.942 401.637 300.475 404.051C301.307 408.104 302.66 412.011 304.494 415.656C305.674 417.915 307.104 420.034 308.01 422.437C308.937 424.899 309.279 427.565 309.821 430.159C311.996 440.41 317.304 449.563 324.884 456.131C323.546 460.077 319.675 462.33 315.91 463.339C315.112 463.706 314.223 463.771 313.387 463.524C312.551 463.277 311.815 462.732 311.299 461.977C309.538 459.916 307.897 457.737 306.387 455.453C300.96 447.597 295.45 439.576 292.494 430.299C291.457 427.044 290.42 423.244 287.501 421.883C285.837 421.108 283.933 421.35 282.147 421.678C278.155 422.412 274.226 423.505 270.402 424.947C266.325 426.485 261.656 428.377 257.924 426.024C255.691 424.616 254.362 421.913 253.872 419.163C253.503 416.388 253.499 413.569 253.861 410.792C253.886 409.536 254.164 408.3 254.676 407.173C255.193 406.33 255.855 405.603 256.627 405.033C259.959 402.289 263.666 400.124 267.613 398.617C271.384 397.176 275.436 396.688 279.37 395.976C282.042 395.492 284.724 395.086 287.417 394.757Z" fill="#575A89"/>
        <path id="Vector_48" opacity="0.1" d="M287.417 394.757C291.126 394.303 295.429 394.228 297.937 397.225C299.475 399.063 299.942 401.637 300.475 404.051C301.307 408.104 302.66 412.011 304.494 415.656C305.674 417.915 307.104 420.034 308.01 422.437C308.937 424.899 309.279 427.565 309.821 430.159C311.996 440.41 317.304 449.563 324.884 456.131C323.546 460.077 319.675 462.33 315.91 463.339C315.112 463.706 314.223 463.771 313.387 463.524C312.551 463.277 311.815 462.732 311.299 461.977C309.538 459.916 307.897 457.737 306.387 455.453C300.96 447.597 295.45 439.576 292.494 430.299C291.457 427.044 290.42 423.244 287.501 421.883C285.837 421.108 283.933 421.35 282.147 421.678C278.155 422.412 274.226 423.505 270.402 424.947C266.325 426.485 261.656 428.377 257.924 426.024C255.691 424.616 254.362 421.913 253.872 419.163C253.503 416.388 253.499 413.569 253.861 410.792C253.886 409.536 254.164 408.3 254.676 407.173C255.193 406.33 255.855 405.603 256.627 405.033C259.959 402.289 263.666 400.124 267.613 398.617C271.384 397.176 275.436 396.688 279.37 395.976C282.042 395.492 284.724 395.086 287.417 394.757Z" fill="black"/>
        <path id="Vector_49" d="M308.653 423.756C310.374 424.697 311.954 425.914 313.341 427.366C314.772 429.194 315.859 431.308 316.541 433.589C316.846 434.35 317.033 435.16 317.095 435.987C317.122 436.402 317.063 436.817 316.921 437.203C316.778 437.588 316.557 437.934 316.274 438.213C315.587 438.692 314.772 438.907 313.959 438.826C312.883 438.836 311.808 438.805 310.733 438.735C310.08 438.73 309.433 438.597 308.823 438.343C308.265 438.034 307.761 437.62 307.335 437.121C305.444 435.218 303.895 432.951 302.767 430.435C301.989 428.574 300.706 424.284 301.932 422.347C303.195 420.351 307.318 422.935 308.653 423.756Z" fill="#FFBFC5"/>
        <path id="Vector_50" d="M256.642 423.092C262.128 424.997 267.968 425.215 273.704 425.795C283.353 426.773 292.884 428.816 302.15 431.891C304.084 432.402 305.907 433.322 307.512 434.598C308.752 435.84 309.803 437.289 310.624 438.888C312.131 441.378 313.496 443.965 314.711 446.636C315.753 449.05 316.547 451.58 317.517 454.029C320.774 462.229 325.925 469.38 332.472 474.795C333.668 475.781 335.001 476.855 335.309 478.45C335.447 479.477 335.292 480.525 334.865 481.454C333.451 485.025 330.515 487.623 327.434 489.611C326.11 490.466 324.652 491.334 324.001 492.849C319.318 490.753 315.838 486.285 312.94 481.78C310.043 477.276 307.473 472.435 303.76 468.699C302.124 467.054 300.265 465.621 298.979 463.644C297.015 460.627 296.484 456.499 293.841 454.17C291.178 451.825 287.359 452.144 283.945 452.507C266.458 454.363 248.837 454.157 231.39 451.891C227.764 451.419 224.037 450.819 220.895 448.799C217.754 446.778 215.307 442.988 215.753 439.058C216.17 435.379 218.996 432.462 222.147 431.022C225.298 429.581 228.78 429.323 232.178 428.908C240.516 428.027 248.728 426.074 256.642 423.092V423.092Z" fill="#575A89"/>
        <path id="Vector_51" d="M206.476 430.731C206.907 427.611 208.024 424.657 208.726 421.596C209.077 419.669 209.522 417.765 210.059 415.889C210.076 415.836 210.096 415.785 210.115 415.732C210.293 415.716 210.466 415.658 210.621 415.562C210.776 415.465 210.91 415.333 211.013 415.175C211.109 414.902 211.135 414.606 211.089 414.318C211.075 414.012 211.084 413.706 211.114 413.402C212.262 411.316 213.516 409.301 214.87 407.367C217.246 403.718 219.304 399.84 221.358 395.969C223.042 392.795 224.728 389.615 226.122 386.28C227.168 383.779 228.047 381.195 229.202 378.752C233.315 370.056 240.709 363.652 248.661 359.049C256.289 354.633 264.536 351.657 272.556 348.147C272.762 348.366 272.949 348.606 273.115 348.862C277.449 355.283 277.916 363.722 279.699 371.439C280.419 374.555 281.382 377.66 281.38 380.872C281.377 385.613 279.287 390.025 277.209 394.197C275.352 398.184 273.16 401.978 270.66 405.528C269.432 407.175 268.081 408.708 266.847 410.349C261.791 417.069 258.872 425.332 256.034 433.439C254.391 438.134 251.706 442.297 249.899 446.92C249.205 448.697 248.805 450.613 247.933 452.295C247.061 453.977 245.544 455.457 243.764 455.465C243.243 455.45 242.726 455.362 242.226 455.204C235.783 453.407 230.387 448.786 225.033 444.506C224.078 443.742 223.116 442.985 222.114 442.296C221.101 441.6 220.049 440.975 218.998 440.351C218.201 439.878 217.405 439.405 216.608 438.931C213.998 437.381 211.384 435.828 208.664 434.516C207.846 434.16 207.06 433.723 206.317 433.21C206.309 432.38 206.362 431.551 206.476 430.731V430.731Z" fill="#26263B"/>
        <path id="Vector_52" d="M290.712 361.573C298.911 361.573 305.557 354.368 305.557 345.481C305.557 336.593 298.911 329.388 290.712 329.388C282.513 329.388 275.867 336.593 275.867 345.481C275.867 354.368 282.513 361.573 290.712 361.573Z" fill="#FFBFC5"/>
        <path id="Vector_53" d="M300.698 337.951C301.057 338.631 301.6 339.175 302.254 339.508C302.908 339.842 303.641 339.948 304.354 339.814C305.062 339.66 305.732 339.345 306.32 338.891C306.908 338.436 307.4 337.852 307.765 337.176C308.487 335.817 308.919 334.301 309.029 332.737C309.145 332.137 309.15 331.518 309.043 330.916C308.937 330.314 308.722 329.74 308.411 329.228C307.857 328.647 307.222 328.165 306.528 327.801C305.572 327.153 304.769 326.272 304.183 325.227C303.768 324.483 303.47 323.67 303.096 322.9C301.746 320.12 299.119 317.859 296.222 317.962C294.83 318.011 293.504 318.585 292.133 318.845C287.53 319.72 282.528 317.081 278.259 319.139C277.208 319.693 276.232 320.399 275.356 321.238C274.154 322.312 272.999 323.445 271.89 324.634C270.927 325.524 270.198 326.674 269.778 327.967C269.198 330.328 270.577 332.966 269.699 335.217C269.399 335.861 269.04 336.471 268.629 337.039C267.66 338.579 268.713 344.59 268.606 346.451C268.482 347.361 268.696 348.288 269.2 349.029C269.9 349.875 271.078 349.949 272.126 349.963L274.054 349.988C274.342 350.009 274.631 349.977 274.909 349.892C275.287 349.71 275.619 349.432 275.878 349.082C277.481 347.251 277.829 341.264 280.157 341.286C280.51 341.264 280.861 341.363 281.161 341.568C281.583 341.903 281.707 342.519 282.006 342.984C282.348 343.422 282.811 343.728 283.326 343.859C283.841 343.989 284.381 343.936 284.866 343.708C285.828 343.226 286.664 342.494 287.301 341.575C287.935 340.659 288.704 339.863 289.577 339.218C290.818 338.434 292.22 338.092 293.427 337.205C294.437 336.465 295.011 335.39 295.917 334.571C296.279 334.233 296.734 334.033 297.211 334.004C297.688 333.975 298.161 334.118 298.556 334.411C299.984 335.219 300.047 336.544 300.698 337.951Z" fill="#2F2E41"/>
        <path id="Vector_54" opacity="0.1" d="M266.399 366.304C269.866 365.77 273.399 366.078 276.743 367.205C277.859 367.481 278.867 368.13 279.625 369.059C280.057 369.763 280.337 370.563 280.447 371.4C281.129 375.248 280.692 379.231 279.195 382.798C279.088 382.977 279.018 383.177 278.988 383.387C278.958 383.598 278.97 383.812 279.022 384.017C279.173 384.265 279.37 384.476 279.6 384.638C279.808 384.855 279.972 385.117 280.08 385.408C280.187 385.699 280.237 386.011 280.225 386.324C280.214 386.637 280.141 386.944 280.012 387.224C279.883 387.505 279.7 387.752 279.476 387.95C279.199 388.17 278.836 388.36 278.782 388.727C278.723 389.127 279.07 389.44 279.339 389.72C279.735 390.14 280.026 390.661 280.187 391.234C280.348 391.808 280.373 392.417 280.26 393.004C280.114 393.476 280.014 393.964 279.962 394.459C280.018 395.064 280.182 395.652 280.446 396.189C280.897 397.4 281.051 398.718 280.893 400.013C280.75 400.625 280.736 401.265 280.853 401.884C281.015 402.293 281.237 402.672 281.508 403.007C282.575 404.567 282.809 407.177 281.262 408.155C281.924 408.524 282.464 409.107 282.806 409.824C283.148 410.541 283.275 411.356 283.169 412.155C284.093 411.619 285.214 412.304 285.983 413.074C286.753 413.844 287.54 414.787 288.586 414.843C289.316 414.883 290.085 414.472 290.75 414.798C291.763 415.293 291.728 417.073 292.724 417.606C293.597 418.074 294.813 417.311 295.557 417.992C295.816 418.229 295.948 418.596 296.198 418.844C296.763 419.405 297.645 419.167 298.411 419.134C299.318 419.161 300.203 419.446 300.978 419.959C301.752 420.471 302.39 421.195 302.828 422.057C303.682 423.793 304.198 425.702 304.342 427.664C304.538 428.73 304.518 429.83 304.285 430.887C304.16 431.413 303.894 431.888 303.522 432.252C303.15 432.615 302.687 432.852 302.191 432.933C293.081 433.572 284.091 431.204 275.221 428.863C272.615 428.175 269.965 427.37 267.792 425.666C265.818 424.119 264.366 421.93 262.95 419.78C260.34 415.817 257.713 411.823 255.844 407.395C253.44 401.695 252.368 395.459 251.316 389.296C250.954 387.644 250.826 385.942 250.934 384.247C251.25 382.266 251.949 380.379 252.985 378.712C254.239 376.501 255.625 374.381 257.135 372.368C259.431 369.182 262.729 367.023 266.399 366.304Z" fill="black"/>
        <path id="Vector_55" d="M266.999 365.653C270.466 365.119 273.999 365.427 277.343 366.554C278.459 366.83 279.468 367.478 280.226 368.408C280.657 369.112 280.938 369.912 281.048 370.748C281.73 374.597 281.292 378.58 279.796 382.147C279.689 382.325 279.618 382.526 279.588 382.736C279.559 382.946 279.57 383.161 279.623 383.366C279.774 383.614 279.97 383.825 280.2 383.986C280.409 384.204 280.572 384.466 280.68 384.757C280.788 385.048 280.838 385.36 280.826 385.673C280.814 385.986 280.742 386.293 280.612 386.573C280.483 386.854 280.301 387.101 280.077 387.299C279.8 387.518 279.437 387.709 279.383 388.076C279.324 388.476 279.67 388.789 279.94 389.069C280.335 389.489 280.627 390.009 280.788 390.583C280.949 391.157 280.974 391.766 280.86 392.353C280.715 392.825 280.615 393.313 280.563 393.808C280.618 394.413 280.783 395.001 281.047 395.538C281.498 396.749 281.652 398.067 281.494 399.362C281.351 399.974 281.337 400.614 281.453 401.233C281.616 401.642 281.837 402.021 282.109 402.356C283.176 403.916 283.41 406.526 281.862 407.504C282.525 407.873 283.064 408.456 283.406 409.173C283.748 409.89 283.875 410.704 283.769 411.503C284.694 410.968 285.814 411.652 286.584 412.423C287.354 413.193 288.141 414.135 289.187 414.192C289.917 414.232 290.685 413.821 291.351 414.147C292.363 414.642 292.329 416.422 293.324 416.955C294.198 417.423 295.414 416.659 296.158 417.341C296.417 417.578 296.549 417.945 296.799 418.193C297.364 418.754 298.246 418.515 299.011 418.482C299.919 418.51 300.803 418.795 301.578 419.307C302.353 419.82 302.991 420.544 303.428 421.406C304.283 423.142 304.798 425.051 304.943 427.013C305.138 428.079 305.119 429.179 304.886 430.236C304.76 430.762 304.495 431.237 304.123 431.6C303.75 431.964 303.287 432.201 302.792 432.281C293.681 432.921 284.692 430.553 275.821 428.211C273.216 427.524 270.566 426.719 268.393 425.015C266.419 423.467 264.967 421.278 263.551 419.129C260.94 415.166 258.313 411.172 256.445 406.744C254.04 401.044 252.968 394.808 251.917 388.645C251.555 386.993 251.426 385.29 251.535 383.596C251.85 381.615 252.549 379.728 253.586 378.06C254.839 375.849 256.226 373.73 257.736 371.717C260.032 368.531 263.329 366.372 266.999 365.653Z" fill="#26263B"/>
        </g>
        <defs>
        <clipPath id="clip0">
        <rect width="798" height="547" fill="white"/>
        </clipPath>
        </defs>
        </svg>